<svg xmlns="http://www.w3.org/2000/svg" xmlns:xlink="http://www.w3.org/1999/xlink" xml:space="preserve" id="Layer_1" x="0" y="0" style="enable-background:new 0 0 784.55 200" version="1.1" viewBox="0 0 784.55 200"><style>.st0{fill:#fbfbf8}.st1{fill:#39a6ff}</style><path d="M16.49 31.35h27.52c5.29 0 9.88 1 13.76 3.01 3.88 2.02 7.08 4.77 9.59 8.26 2.5 3.5 4.35 7.48 5.55 11.92 1.2 4.45 1.8 9.07 1.8 13.87 0 6.78-1.07 12.97-3.22 18.59-2.16 5.6-5.5 10.08-10.01 13.42-4.51 3.36-10.34 5.04-17.46 5.04H16.49c-.56 0-1.06-.21-1.48-.64-.42-.42-.64-.92-.64-1.48V33.47c0-.57.21-1.06.64-1.48.42-.43.92-.64 1.48-.64zm1.69 69.86h24.77c6.49 0 11.74-1.47 15.73-4.41 3.98-2.92 6.91-6.87 8.78-11.85 1.86-4.97 2.8-10.49 2.8-16.56 0-4.31-.51-8.43-1.52-12.38-1.03-3.95-2.64-7.47-4.83-10.54-2.19-3.06-5.01-5.48-8.47-7.24-3.46-1.76-7.62-2.65-12.49-2.65H18.18l.63-.85v67.43l-.63-.95zm74.53-69.86h39.91c.57 0 1.06.21 1.48.63.42.42.63.92.63 1.48 0 .63-.21 1.15-.63 1.55-.42.38-.92.57-1.48.57H93.98l1.06-1.8V66.6l-1.27-1.48h34.08c.56 0 1.06.21 1.48.64.42.42.63.92.63 1.48 0 .64-.21 1.15-.63 1.55-.42.38-.92.57-1.48.57H93.98l1.06-1.16v33.56l-.42-.53h38c.57 0 1.06.21 1.48.63.42.42.63.92.63 1.48 0 .63-.21 1.14-.63 1.52-.42.4-.92.59-1.48.59H92.71c-.57 0-1.06-.21-1.48-.64-.42-.42-.63-.92-.63-1.48V33.47c0-.57.21-1.06.63-1.48.42-.43.91-.64 1.48-.64zm60 0h39.91c.56 0 1.06.21 1.48.63.43.42.64.92.64 1.48 0 .63-.21 1.15-.64 1.55-.42.38-.92.57-1.48.57h-38.64l1.06-1.8V66.6l-1.27-1.48h34.08c.57 0 1.06.21 1.48.64.43.42.63.92.63 1.48 0 .64-.21 1.15-.63 1.55-.42.38-.92.57-1.48.57h-33.87l1.06-1.16v33.56l-.4-.53h37.98c.56 0 1.06.21 1.48.63.43.42.64.92.64 1.48 0 .63-.21 1.14-.64 1.52-.42.4-.92.59-1.48.59h-39.91c-.56 0-1.06-.21-1.48-.64-.42-.42-.63-.92-.63-1.48V33.47c0-.57.21-1.06.63-1.48.42-.43.91-.64 1.48-.64zm60.02 0h25.4c4.03 0 7.54.85 10.54 2.54 2.99 1.69 5.32 4.06 6.99 7.09 1.65 3.03 2.48 6.56 2.48 10.59 0 3.95-.83 7.52-2.48 10.69-1.67 3.18-3.99 5.68-6.99 7.52-3.01 1.83-6.52 2.75-10.54 2.75h-23.5l.42-.74v31.55c0 .56-.22 1.06-.68 1.48-.47.42-.98.64-1.55.64-.71 0-1.25-.21-1.63-.64a2.12 2.12 0 0 1-.59-1.48V33.47c0-.57.21-1.06.63-1.48.44-.43.93-.64 1.5-.64zm1.9 36.94h23.5c3.25 0 6.02-.72 8.32-2.16 2.29-1.45 4.07-3.45 5.33-5.99 1.27-2.54 1.91-5.4 1.91-8.58 0-3.25-.64-6.05-1.91-8.42-1.27-2.36-3.05-4.21-5.33-5.55-2.3-1.34-5.07-2.01-8.32-2.01h-23.39l.32-.53v33.56l-.43-.32zm0 0" class="st0"/><path d="M348.93 7.8c-34.12 0-61.66 27.54-61.66 61.66s27.54 61.66 61.66 61.66 61.66-27.54 61.66-61.66S383.05 7.8 348.93 7.8zm0 117.84c-30.97 0-56.18-25.21-56.18-56.18s25.21-56.18 56.18-56.18 56.18 25.21 56.18 56.18-25.21 56.18-56.18 56.18zm0 0" class="st1"/><path d="m349.47 70.01-17.4-17.4-3.84 3.97 21.24 21.24 32.06-32.2-3.84-3.84-28.22 28.23zm0 0" class="st1"/><defs><path id="SVGID_1_" d="M439.71 30.29h327.31v76.22H439.71z"/></defs><clipPath id="SVGID_2_"><use xlink:href="#SVGID_1_" style="overflow:visible"/></clipPath><path d="M441.83 105.45c-.63 0-1.14-.21-1.52-.63-.4-.42-.6-.92-.6-1.48V33.47c0-.56.21-1.06.64-1.48.42-.42.92-.64 1.48-.64h39.91c.57 0 1.06.21 1.48.64.42.42.63.92.63 1.48 0 .64-.21 1.15-.63 1.55-.42.38-.92.57-1.48.57h-38.11l.32-.42v30.48l-.42-.85h33.45c.56 0 1.06.21 1.48.64.42.42.64.92.64 1.48 0 .64-.21 1.14-.64 1.52-.42.39-.92.59-1.48.59h-33.66l.63-.85v35.14c0 .57-.19 1.06-.57 1.48-.4.44-.91.65-1.55.65zM564.2 68.4c0 5.64-.87 10.8-2.61 15.45-1.72 4.66-4.17 8.68-7.35 12.07-3.18 3.39-6.91 6-11.22 7.83-4.31 1.83-9.04 2.75-14.19 2.75s-9.88-.92-14.18-2.75a32.897 32.897 0 0 1-11.22-7.83c-3.18-3.38-5.63-7.41-7.37-12.07-1.72-4.66-2.58-9.81-2.58-15.45 0-5.65.86-10.8 2.58-15.45 1.74-4.66 4.19-8.68 7.37-12.07 3.18-3.39 6.91-6 11.22-7.83 4.3-1.84 9.03-2.75 14.18-2.75s9.88.92 14.19 2.75a32.76 32.76 0 0 1 11.22 7.83c3.18 3.39 5.62 7.41 7.35 12.07 1.74 4.65 2.61 9.8 2.61 15.45zm-4.44 0c0-6.78-1.33-12.7-3.98-17.78-2.64-5.08-6.28-9.04-10.9-11.86-4.62-2.82-9.96-4.23-16.03-4.23-6 0-11.33 1.41-15.98 4.23-4.66 2.82-8.31 6.78-10.97 11.86-2.64 5.08-3.96 11.01-3.96 17.78 0 6.77 1.32 12.7 3.96 17.78 2.65 5.08 6.31 9.03 10.97 11.85 4.66 2.82 9.98 4.23 15.98 4.23 6.07 0 11.41-1.41 16.03-4.23 4.63-2.82 8.27-6.77 10.9-11.85 2.65-5.08 3.98-11.01 3.98-17.78zm75.15-30.91c.56.42.88.9.95 1.42.07.54-.07 1.09-.42 1.65-.35.5-.8.75-1.33.79-.52.04-1.03-.08-1.52-.36-2.96-2.05-6.2-3.67-9.7-4.87-3.49-1.2-7.21-1.8-11.16-1.8-4.52 0-8.74.83-12.66 2.48a31.657 31.657 0 0 0-10.31 7.05c-2.96 3.03-5.29 6.63-6.99 10.8-1.7 4.16-2.54 8.75-2.54 13.76s.85 9.6 2.54 13.76 4.02 7.76 6.99 10.79c2.96 3.03 6.4 5.38 10.31 7.03 3.92 1.67 8.14 2.5 12.66 2.5 3.95 0 7.66-.6 11.11-1.8 3.46-1.2 6.67-2.79 9.63-4.77.5-.35 1.02-.49 1.59-.42.56.07 1.02.35 1.37.85.35.5.5 1.02.42 1.59-.07.56-.35 1.02-.85 1.37-1.7 1.2-3.83 2.36-6.42 3.49-2.57 1.13-5.3 2.03-8.19 2.71-2.89.66-5.79.99-8.68.99-5.08 0-9.84-.95-14.29-2.86a36.696 36.696 0 0 1-11.75-8c-3.39-3.41-6.05-7.44-8-12.07-1.93-4.62-2.9-9.68-2.9-15.18 0-5.51.97-10.57 2.9-15.2 1.95-4.62 4.62-8.64 8-12.07 3.39-3.41 7.3-6.07 11.75-7.98 4.45-1.9 9.21-2.86 14.29-2.86 4.31 0 8.45.64 12.43 1.9 4.01 1.29 7.6 3.05 10.77 5.31zm67.63-6.14c.64 0 1.15.21 1.55.64.38.42.57.92.57 1.48V79.2c0 5.01-1.24 9.58-3.7 13.7-2.47 4.13-5.75 7.44-9.85 9.91-4.09 2.47-8.65 3.7-13.65 3.7-5.01 0-9.58-1.23-13.7-3.7-4.14-2.47-7.44-5.77-9.91-9.91-2.47-4.12-3.71-8.69-3.71-13.7V33.47c0-.56.2-1.06.59-1.48.38-.42.93-.64 1.63-.64.63 0 1.16.21 1.59.64.42.42.63.92.63 1.48V79.2c0 4.23 1.02 8.1 3.07 11.58 2.05 3.5 4.82 6.29 8.32 8.36 3.49 2.09 7.31 3.13 11.47 3.13 4.23 0 8.08-1.04 11.54-3.13 3.46-2.08 6.23-4.86 8.32-8.36 2.07-3.49 3.11-7.35 3.11-11.58V33.47c0-.56.2-1.06.59-1.48.39-.43.9-.64 1.54-.64zm41.6 75.16c-5.5.07-10.23-.85-14.18-2.75-3.95-1.9-7.76-4.69-11.43-8.36a2.73 2.73 0 0 1-.42-.59c-.14-.24-.21-.57-.21-1 0-.56.25-1.11.74-1.65.49-.52 1.02-.78 1.59-.78.64 0 1.24.32 1.8.95 2.82 3.25 6.12 5.71 9.91 7.41 3.77 1.69 7.7 2.54 11.79 2.54 3.6 0 6.81-.58 9.63-1.76 2.82-1.16 5.05-2.81 6.67-4.95 1.63-2.16 2.44-4.69 2.44-7.58-.07-3.6-1.06-6.49-2.96-8.68-1.9-2.19-4.35-3.99-7.35-5.4-3.01-1.41-6.17-2.72-9.48-3.92-2.61-.99-5.19-2.01-7.73-3.07s-4.83-2.35-6.88-3.87c-2.05-1.51-3.67-3.42-4.87-5.72-1.2-2.29-1.8-5.12-1.8-8.51 0-3.46.94-6.58 2.82-9.38 1.86-2.78 4.54-5 8.04-6.67 3.49-1.65 7.63-2.48 12.43-2.48 4.02 0 7.94.72 11.75 2.16 3.81 1.45 6.81 3.63 9 6.52.7.99 1.06 1.73 1.06 2.22 0 .49-.26.99-.78 1.48-.53.5-1.12.74-1.76.74-.56 0-1.02-.21-1.37-.64a19.81 19.81 0 0 0-4.59-4.4c-1.81-1.23-3.84-2.17-6.1-2.84-2.26-.68-4.66-1.02-7.2-1.02-3.46 0-6.6.57-9.42 1.7-2.82 1.13-5.08 2.73-6.78 4.8-1.69 2.09-2.54 4.65-2.54 7.69 0 3.24.94 5.91 2.82 7.98 1.86 2.09 4.24 3.82 7.13 5.19 2.9 1.38 5.86 2.64 8.89 3.77 2.68.92 5.35 1.92 8 3.01 2.64 1.1 5.04 2.46 7.2 4.09 2.14 1.62 3.85 3.67 5.12 6.14 1.27 2.47 1.91 5.57 1.91 9.32 0 3.25-.93 6.25-2.8 9-1.88 2.75-4.51 4.98-7.9 6.67-3.41 1.68-7.46 2.57-12.19 2.64zm0 0" style="clip-path:url(#SVGID_2_);fill:#fbfbf8"/><path d="M168.37 158.7c2.06 0 3.88.51 5.45 1.52 1.58 1.02 2.8 2.44 3.67 4.28.87 1.83 1.3 3.98 1.3 6.42 0 2.41-.43 4.53-1.3 6.34-.87 1.82-2.09 3.23-3.67 4.23-1.57 1-3.39 1.5-5.45 1.5-1.96 0-3.64-.43-5.04-1.3-1.4-.87-2.46-2.12-3.17-3.76v13.41h-2.03V159.3h2.03v4.39c.71-1.61 1.76-2.84 3.17-3.69 1.4-.88 3.08-1.3 5.04-1.3zm-.05 22.29c2.61 0 4.63-.88 6.08-2.62 1.45-1.76 2.17-4.24 2.17-7.46s-.72-5.73-2.17-7.53c-1.45-1.8-3.46-2.7-6.03-2.7-2.64 0-4.67.88-6.08 2.63-1.42 1.75-2.12 4.26-2.12 7.51s.71 5.76 2.12 7.53c1.42 1.76 3.43 2.64 6.03 2.64zm25.92 1.98c-2.06 0-3.88-.5-5.45-1.5-1.58-1-2.8-2.41-3.67-4.25-.87-1.83-1.3-3.97-1.3-6.42 0-2.41.43-4.54 1.3-6.37.87-1.83 2.09-3.25 3.67-4.25 1.57-1 3.39-1.5 5.45-1.5s3.87.5 5.45 1.5 2.8 2.41 3.67 4.25c.87 1.83 1.3 3.96 1.3 6.37 0 2.45-.44 4.59-1.3 6.42-.87 1.83-2.09 3.25-3.67 4.25s-3.39 1.5-5.45 1.5zm-.05-1.98c2.67 0 4.72-.88 6.15-2.62 1.44-1.76 2.15-4.28 2.15-7.56 0-3.18-.73-5.67-2.2-7.46-1.46-1.78-3.48-2.67-6.05-2.67s-4.59.89-6.06 2.67c-1.46 1.79-2.19 4.28-2.19 7.46 0 3.28.72 5.8 2.14 7.56 1.43 1.75 3.45 2.62 6.06 2.62zm41.49-22.29c5.15 0 7.72 2.96 7.72 8.88v15.05h-2.02v-14.86c0-2.48-.45-4.29-1.36-5.43-.9-1.14-2.33-1.71-4.28-1.71-2.25 0-4.05.75-5.39 2.27-1.33 1.51-2 3.56-2 6.13v13.61h-2.03v-14.86c0-2.48-.45-4.29-1.35-5.43-.91-1.14-2.34-1.71-4.29-1.71-2.25 0-4.05.75-5.39 2.27-1.33 1.51-2 3.56-2 6.13v13.61h-2.03V159.3h1.97v4.1c.65-1.51 1.6-2.67 2.88-3.47 1.27-.8 2.78-1.21 4.51-1.21 3.73 0 6.13 1.56 7.19 4.68.67-1.45 1.71-2.59 3.11-3.43 1.41-.85 2.99-1.27 4.76-1.27zm24.66 24.27c-2.06 0-3.88-.5-5.46-1.5-1.57-1-2.8-2.41-3.66-4.25-.87-1.83-1.3-3.97-1.3-6.42 0-2.41.43-4.54 1.3-6.37.87-1.83 2.09-3.25 3.66-4.25 1.58-1 3.39-1.5 5.46-1.5 2.06 0 3.87.5 5.45 1.5 1.57 1 2.8 2.41 3.67 4.25.87 1.83 1.3 3.96 1.3 6.37 0 2.45-.43 4.59-1.3 6.42-.87 1.83-2.09 3.25-3.67 4.25-1.57 1-3.39 1.5-5.45 1.5zm-.05-1.98c2.67 0 4.72-.88 6.16-2.62 1.43-1.76 2.14-4.28 2.14-7.56 0-3.18-.73-5.67-2.19-7.46-1.47-1.78-3.49-2.67-6.06-2.67-2.57 0-4.59.89-6.05 2.67-1.47 1.79-2.2 4.28-2.2 7.46 0 3.28.72 5.8 2.15 7.56 1.43 1.75 3.44 2.62 6.05 2.62zm34.12-32.38h2.03v34.02h-2.03v-4.73c-.71 1.64-1.76 2.9-3.16 3.76-1.4.87-3.08 1.3-5.05 1.3-2.06 0-3.88-.51-5.45-1.52-1.58-1.01-2.8-2.44-3.67-4.3-.87-1.85-1.3-3.99-1.3-6.44 0-2.41.44-4.52 1.3-6.32.87-1.8 2.09-3.2 3.67-4.2 1.57-1 3.39-1.5 5.45-1.5 1.96 0 3.64.44 5.05 1.3 1.4.87 2.45 2.11 3.16 3.72v-15.09zm-8.21 32.38c2.64 0 4.66-.88 6.08-2.65s2.12-4.28 2.12-7.53c0-3.22-.71-5.71-2.12-7.48-1.42-1.77-3.43-2.66-6.03-2.66s-4.64.88-6.1 2.63c-1.47 1.75-2.2 4.23-2.2 7.41 0 3.22.73 5.73 2.2 7.55 1.46 1.82 3.48 2.73 6.05 2.73zm27.27 1.98c-2.06 0-3.87-.5-5.45-1.5s-2.8-2.41-3.67-4.25c-.87-1.83-1.3-3.97-1.3-6.42 0-2.41.44-4.54 1.3-6.37.87-1.83 2.09-3.25 3.67-4.25s3.39-1.5 5.45-1.5 3.88.5 5.45 1.5c1.57 1 2.8 2.41 3.67 4.25.87 1.83 1.3 3.96 1.3 6.37 0 2.45-.43 4.59-1.3 6.42-.87 1.83-2.09 3.25-3.67 4.25s-3.39 1.5-5.45 1.5zm-.05-1.98c2.67 0 4.72-.88 6.15-2.62 1.43-1.76 2.15-4.28 2.15-7.56 0-3.18-.73-5.67-2.2-7.46-1.46-1.78-3.48-2.67-6.05-2.67s-4.59.89-6.06 2.67c-1.46 1.79-2.19 4.28-2.19 7.46 0 3.28.71 5.8 2.14 7.56 1.43 1.75 3.45 2.62 6.06 2.62zm28.08-22.29.24 1.83-1.64.19c-2.64.26-4.56 1.11-5.77 2.58s-1.81 3.25-1.81 5.34v13.99h-2.03v-23.35h2.03v4.1c.74-1.45 1.76-2.54 3.06-3.26 1.31-.72 2.94-1.16 4.9-1.32l1.02-.1zm13.07 24.27c-2.06 0-3.88-.5-5.45-1.5-1.58-1-2.8-2.41-3.67-4.25-.87-1.83-1.3-3.97-1.3-6.42 0-2.41.43-4.54 1.3-6.37.87-1.83 2.09-3.25 3.67-4.25 1.57-1 3.39-1.5 5.45-1.5s3.88.5 5.45 1.5c1.58 1 2.8 2.41 3.67 4.25.87 1.83 1.3 3.96 1.3 6.37 0 2.45-.44 4.59-1.3 6.42-.87 1.83-2.09 3.25-3.67 4.25-1.57 1-3.39 1.5-5.45 1.5zm-.04-1.98c2.67 0 4.72-.88 6.16-2.62 1.43-1.76 2.14-4.28 2.14-7.56 0-3.18-.73-5.67-2.19-7.46-1.47-1.78-3.49-2.67-6.06-2.67-2.57 0-4.59.89-6.05 2.67-1.47 1.79-2.2 4.28-2.2 7.46 0 3.28.72 5.8 2.15 7.56 1.42 1.75 3.44 2.62 6.05 2.62zm37.68.05c.74 0 1.42-.05 2.03-.14l-.1 1.88c-.68.09-1.4.14-2.17.14-2.41 0-4.27-.7-5.58-2.11-1.3-1.4-1.95-3.27-1.95-5.62V161h-4.68v-1.74h4.68v-7.29h2.03v7.29h7.04V161h-7.04v13.75c0 2.06.48 3.62 1.45 4.68.96 1.08 2.39 1.61 4.29 1.61zm8.45 1.59h-2.03v-23.35h2.03v23.35zm-2.56-29.86v-3.04h3.09v3.04h-3.09zm35.17 5.93c5.15 0 7.72 2.96 7.72 8.88v15.05h-2.03v-14.86c0-2.48-.45-4.29-1.35-5.43-.9-1.14-2.33-1.71-4.3-1.71-2.25 0-4.04.75-5.38 2.27-1.34 1.51-2.01 3.56-2.01 6.13v13.61h-2.03v-14.86c0-2.48-.45-4.29-1.35-5.43-.9-1.14-2.33-1.71-4.3-1.71-2.25 0-4.04.75-5.38 2.27-1.34 1.51-2 3.56-2 6.13v13.61h-2.03V159.3h1.98v4.1c.64-1.51 1.6-2.67 2.88-3.47 1.27-.8 2.77-1.21 4.51-1.21 3.73 0 6.13 1.56 7.19 4.68.68-1.45 1.72-2.59 3.12-3.43 1.41-.85 2.99-1.27 4.76-1.27zm34.6 11.19v1.26h-18.15c.06 3.15.86 5.58 2.39 7.29 1.52 1.7 3.7 2.56 6.53 2.56 1.45 0 2.81-.24 4.08-.72s2.53-1.26 3.78-2.32l.97 1.74c-1 1-2.28 1.79-3.86 2.39-1.57.6-3.2.9-4.87.9-3.48 0-6.22-1.08-8.22-3.23-2.01-2.16-3.02-5.12-3.02-8.88 0-2.41.45-4.54 1.35-6.37.9-1.83 2.17-3.26 3.81-4.28 1.64-1.01 3.52-1.52 5.64-1.52 3.02 0 5.37.98 7.05 2.95 1.68 1.94 2.52 4.7 2.52 8.23zm-9.56-9.31c-2.45 0-4.41.76-5.91 2.29s-2.38 3.66-2.63 6.4h16.16c-.06-2.8-.75-4.95-2.08-6.45-1.31-1.49-3.16-2.24-5.54-2.24zm36.68 20.46c.74 0 1.42-.05 2.03-.14l-.1 1.88c-.67.09-1.4.14-2.17.14-2.41 0-4.27-.7-5.58-2.11-1.3-1.4-1.95-3.27-1.95-5.62V161h-4.68v-1.74h4.68v-7.29h2.03v7.29h7.04V161h-7.04v13.75c0 2.06.48 3.62 1.45 4.68.96 1.08 2.39 1.61 4.29 1.61zm17.41-22.34.24 1.83-1.64.19c-2.64.26-4.56 1.11-5.76 2.58-1.21 1.47-1.82 3.25-1.82 5.34v13.99h-2.03v-23.35h2.03v4.1c.74-1.45 1.76-2.54 3.07-3.26 1.3-.72 2.93-1.16 4.89-1.32l1.02-.1zm13.46 0c5.34 0 8.01 2.88 8.01 8.64v15.29h-2.08v-4.29c-.71 1.48-1.73 2.62-3.06 3.43-1.34.8-2.86 1.21-4.56 1.21-1.48 0-2.84-.31-4.07-.92-1.24-.61-2.22-1.46-2.94-2.54a6.141 6.141 0 0 1-1.09-3.54c0-1.74.46-3.08 1.38-4.03.91-.95 2.42-1.63 4.53-2.05 2.11-.42 5.05-.63 8.85-.63h.96v-2.03c0-2.29-.45-3.95-1.35-5-.9-1.04-2.33-1.57-4.3-1.57-1.51 0-2.9.2-4.17.6-1.27.41-2.6 1.06-3.99 1.96l-.96-1.74c1.19-.87 2.57-1.55 4.13-2.06 1.57-.48 3.13-.73 4.71-.73zm-1.69 22.25c1.45 0 2.75-.35 3.91-1.04a7.258 7.258 0 0 0 2.73-2.87c.66-1.22.98-2.61.98-4.15v-1.74h-.92c-3.38 0-5.95.13-7.72.4-1.77.28-3.01.74-3.72 1.4-.71.66-1.06 1.64-1.06 2.92 0 1.48.55 2.69 1.64 3.64 1.11.96 2.49 1.44 4.16 1.44zm26.93 2.02c-2.16 0-4.04-.5-5.65-1.5-1.61-1-2.86-2.41-3.74-4.25-.88-1.83-1.32-3.94-1.32-6.32 0-2.41.44-4.55 1.32-6.4.89-1.85 2.14-3.28 3.77-4.3 1.63-1.01 3.52-1.52 5.67-1.52 1.58 0 3.07.28 4.49.84 1.42.57 2.57 1.33 3.47 2.3l-.96 1.74c-1.22-1.03-2.38-1.78-3.47-2.25-1.09-.46-2.25-.7-3.47-.7-2.67 0-4.78.92-6.32 2.75s-2.32 4.36-2.32 7.58c0 3.15.76 5.61 2.29 7.38 1.53 1.77 3.63 2.65 6.3 2.65 1.22 0 2.39-.22 3.49-.68 1.11-.45 2.28-1.19 3.5-2.22l.96 1.69c-.93 1-2.12 1.77-3.57 2.34-1.45.59-2.93.87-4.44.87zm17.9-12.45 14.19 12.11h-2.94l-13.56-11.53v11.53h-2.03v-34.02h2.03v21.57l12.21-10.9h2.85L569 170.52zm36.47-.63v1.26h-18.14c.06 3.15.86 5.58 2.39 7.29 1.52 1.7 3.7 2.56 6.53 2.56 1.45 0 2.81-.24 4.08-.72s2.53-1.26 3.78-2.32l.96 1.74c-1 1-2.28 1.79-3.86 2.39-1.58.6-3.2.9-4.87.9-3.47 0-6.22-1.08-8.22-3.23-2.01-2.16-3.02-5.12-3.02-8.88 0-2.41.45-4.54 1.35-6.37.9-1.83 2.17-3.26 3.81-4.28 1.64-1.01 3.52-1.52 5.65-1.52 3.02 0 5.37.98 7.04 2.95 1.69 1.94 2.52 4.7 2.52 8.23zm-9.55-9.31c-2.45 0-4.41.76-5.91 2.29s-2.38 3.66-2.63 6.4h16.16c-.06-2.8-.75-4.95-2.07-6.45-1.32-1.49-3.17-2.24-5.55-2.24zm27.07-1.88.24 1.83-1.64.19c-2.64.26-4.56 1.11-5.76 2.58-1.21 1.47-1.82 3.25-1.82 5.34v13.99h-2.03v-23.35h2.03v4.1c.74-1.45 1.76-2.54 3.07-3.26 1.3-.72 2.93-1.16 4.89-1.32l1.02-.1zm0 0" class="st0"/></svg>